<?xml version="1.0" encoding="UTF-8"?>
<svg width="1668px" height="690px" viewBox="0 0 1668 690" version="1.1" xmlns="http://www.w3.org/2000/svg" xmlns:xlink="http://www.w3.org/1999/xlink">
    <title>画板</title>
    <g id="画板" stroke="none" stroke-width="1" fill="none" fill-rule="evenodd">
        <rect fill="#FFFFFF" x="0" y="0" width="1668" height="690"></rect>
        <text id="@yeqown" font-family="PTMono-Regular, PT Mono" font-size="16" font-weight="normal" fill="#000000">
            <tspan x="1452" y="593">@yeqown</tspan>
        </text>
        <line x1="100.5" y1="329.5" x2="1521" y2="329" id="直线" stroke="#595959" stroke-width="4" stroke-linecap="round" stroke-linejoin="round"></line>
        <line x1="474" y1="226" x2="721" y2="226" id="直线备份-5" stroke="#595959" stroke-width="4" stroke-linecap="round" stroke-linejoin="round"></line>
        <line x1="232.5" y1="431.5" x2="892.5" y2="431.5" id="直线备份" stroke="#595959" stroke-width="4" stroke-linecap="round" stroke-linejoin="round"></line>
        <line x1="967" y1="122" x2="1184" y2="122" id="直线备份-4" stroke="#595959" stroke-width="4" stroke-linecap="round" stroke-linejoin="round"></line>
        <line x1="354.5" y1="602.5" x2="550" y2="603" id="直线备份-2" stroke="#595959" stroke-width="4" stroke-linecap="round" stroke-linejoin="round"></line>
        <line x1="402.5" y1="516.5" x2="467" y2="517" id="直线备份-3" stroke="#595959" stroke-width="4" stroke-linecap="round" stroke-linejoin="round"></line>
        <line x1="1278.5" y1="227.5" x2="1391" y2="227" id="直线备份-6" stroke="#595959" stroke-width="4" stroke-linecap="round" stroke-linejoin="round"></line>
        <circle id="椭圆形" stroke="#595959" stroke-width="4" fill="#FFC069" cx="102.5" cy="329.5" r="14.5"></circle>
        <circle id="椭圆形备份-6" stroke="#595959" stroke-width="4" fill="#FFC069" cx="94.5" cy="41.5" r="14.5"></circle>
        <circle id="椭圆形备份-7" stroke="#595959" stroke-width="4" fill="#FFC069" cx="355.5" cy="329.5" r="14.5"></circle>
        <circle id="椭圆形备份-21" stroke="#595959" stroke-width="4" fill="#FF7875" cx="473.5" cy="226.5" r="14.5"></circle>
        <circle id="椭圆形备份-28" stroke="#595959" stroke-width="4" fill="#FF7875" cx="94.5" cy="88.5" r="14.5"></circle>
        <circle id="椭圆形备份-22" stroke="#595959" stroke-width="4" fill="#FF7875" cx="540.5" cy="226.5" r="14.5"></circle>
        <circle id="椭圆形备份-23" stroke="#595959" stroke-width="4" fill="#FF7875" cx="720.5" cy="225.5" r="14.5"></circle>
        <circle id="椭圆形备份-8" stroke="#595959" stroke-width="4" fill="#FFC069" cx="473.5" cy="329.5" r="14.5"></circle>
        <circle id="椭圆形备份-9" stroke="#595959" stroke-width="4" fill="#FFC069" cx="720.5" cy="329.5" r="14.5"></circle>
        <circle id="椭圆形备份-20" stroke="#595959" stroke-width="4" fill="#FFC069" cx="1022.5" cy="329.5" r="14.5"></circle>
        <circle id="椭圆形备份-24" stroke="#595959" stroke-width="4" fill="#FFC069" cx="1183.5" cy="329.5" r="14.5"></circle>
        <circle id="椭圆形备份-27" stroke="#595959" stroke-width="4" fill="#FFC069" cx="1389.5" cy="328.5" r="14.5"></circle>
        <circle id="椭圆形备份-25" stroke="#595959" stroke-width="4" fill="#95DE64" cx="1278.5" cy="226.5" r="14.5"></circle>
        <circle id="椭圆形备份-26" stroke="#595959" stroke-width="4" fill="#95DE64" cx="1389.5" cy="226.5" r="14.5"></circle>
        <circle id="椭圆形备份-31" stroke="#595959" stroke-width="4" fill="#95DE64" cx="242.5" cy="88.5" r="14.5"></circle>
        <circle id="椭圆形备份" stroke="#595959" stroke-width="4" fill="#B37FEB" cx="232.5" cy="432.5" r="14.5"></circle>
        <circle id="椭圆形备份-29" stroke="#595959" stroke-width="4" fill="#B37FEB" cx="94.5" cy="137.5" r="14.5"></circle>
        <circle id="椭圆形备份-3" stroke="#595959" stroke-width="4" fill="#B37FEB" cx="967.5" cy="122.5" r="14.5"></circle>
        <circle id="椭圆形备份-4" stroke="#595959" stroke-width="4" fill="#B37FEB" cx="1022.5" cy="122.5" r="14.5"></circle>
        <circle id="椭圆形备份-5" stroke="#595959" stroke-width="4" fill="#B37FEB" cx="1183.5" cy="122.5" r="14.5"></circle>
        <circle id="椭圆形备份-13" stroke="#595959" stroke-width="4" fill="#B37FEB" cx="317.5" cy="432.5" r="14.5"></circle>
        <circle id="椭圆形备份-14" stroke="#595959" stroke-width="4" fill="#B37FEB" cx="402.5" cy="432.5" r="14.5"></circle>
        <circle id="椭圆形备份-15" stroke="#595959" stroke-width="4" fill="#B37FEB" cx="657.5" cy="432.5" r="14.5"></circle>
        <circle id="椭圆形备份-19" stroke="#595959" stroke-width="4" fill="#B37FEB" cx="892.5" cy="432.5" r="14.5"></circle>
        <circle id="椭圆形备份-18" stroke="#595959" stroke-width="4" fill="#B37FEB" cx="550.5" cy="432.5" r="14.5"></circle>
        <circle id="椭圆形备份-2" stroke="#595959" stroke-width="4" fill="#87E8DE" cx="354.5" cy="603.5" r="14.5"></circle>
        <circle id="椭圆形备份-16" stroke="#595959" stroke-width="4" fill="#87E8DE" cx="402.5" cy="517.5" r="14.5"></circle>
        <circle id="椭圆形备份-30" stroke="#595959" stroke-width="4" fill="#87E8DE" cx="242.5" cy="41.5" r="14.5"></circle>
        <circle id="椭圆形备份-10" stroke="#595959" stroke-width="4" fill="#87E8DE" cx="405.5" cy="603.5" r="14.5"></circle>
        <circle id="椭圆形备份-17" stroke="#595959" stroke-width="4" fill="#87E8DE" cx="453.5" cy="517.5" r="14.5"></circle>
        <circle id="椭圆形备份-11" stroke="#595959" stroke-width="4" fill="#87E8DE" cx="473.5" cy="603.5" r="14.5"></circle>
        <circle id="椭圆形备份-12" stroke="#595959" stroke-width="4" fill="#87E8DE" cx="550.5" cy="603.5" r="14.5"></circle>
        <g id="master备份-4" transform="translate(72.000000, 272.000000)">
            <rect id="矩形" stroke="#595959" stroke-width="4" fill="#FFC069" x="2" y="2" width="57" height="29" rx="4"></rect>
            <text id="v1.0.0" font-family="Chalkboard" font-size="16" font-weight="normal" fill="#000000">
                <tspan x="10" y="22">v1.0.0</tspan>
            </text>
        </g>
        <g id="master备份-5" transform="translate(992.000000, 272.000000)">
            <rect id="矩形" stroke="#595959" stroke-width="4" fill="#FFC069" x="2" y="2" width="57" height="29" rx="4"></rect>
            <text id="v1.1.0" font-family="Chalkboard" font-size="16" font-weight="normal" fill="#000000">
                <tspan x="10" y="22">v1.1.0</tspan>
            </text>
        </g>
        <g id="master备份-8" transform="translate(1411.000000, 272.000000)">
            <rect id="矩形" stroke="#595959" stroke-width="4" fill="#FFC069" x="2" y="2" width="57" height="29" rx="4"></rect>
            <text id="v1.2.0" font-family="Chalkboard" font-size="16" font-weight="normal" fill="#000000">
                <tspan x="8" y="22">v1.2.0</tspan>
            </text>
        </g>
        <g id="master备份-7" transform="translate(737.000000, 272.000000)">
            <rect id="矩形" stroke="#595959" stroke-width="4" fill="#FFC069" x="2" y="2" width="57" height="29" rx="4"></rect>
            <text id="v1.0.1" font-family="Chalkboard" font-size="16" font-weight="normal" fill="#000000">
                <tspan x="10" y="22">v1.0.1</tspan>
            </text>
        </g>
        <path d="M249,432 C293.5,432 293.5,460.360962 293.5,517.5 C293.5,574.639024 293.5,602.75 339.107095,603" id="路径" stroke="#595959" stroke-width="4"></path>
        <path d="M119,329.5 C167.5,330.274956 167.5,357.734103 167.5,380.5 C167.5,415.699656 168.033918,431.5 217.067836,431.5" id="路径-2" stroke="#595959" stroke-width="4"></path>
        <text id="Inspired-from-git-fl" font-family="PTMono-Regular, PT Mono" font-size="16" font-weight="normal" fill="#000000">
            <tspan x="1331" y="615">Inspired from git flow design</tspan>
        </text>
        <path d="M566.120882,603.5 C604,602.665053 604,540.52428 604,511.273359 C604,482.022438 603.560441,431.5 641,431.5" id="路径-3" stroke="#595959" stroke-width="4"></path>
        <line x1="402.5" y1="447.5" x2="402.5" y2="501.5" id="直线-2" stroke="#595959" stroke-width="4" stroke-linecap="square"></line>
        <path d="M470,517 C505.80575,517.5 502.5,501 502.5,474.5 C502.5,448 502.5,431.500982 535,431.500982" id="路径-4" stroke="#595959" stroke-width="4"></path>
        <path d="M909,431.5 C957.600526,432.5 957.600526,420.245948 957.600526,380.375 C957.600526,340.504052 957.600526,329 1006.20105,329.25" id="路径-5" stroke="#595959" stroke-width="4"></path>
        <path d="M371,329.25 C414,329 414,303.119437 414,277.872111 C414,252.624785 414,226 457,226.5" id="路径-6" stroke="#595959" stroke-width="4"></path>
        <line x1="720.5" y1="241.5" x2="720.5" y2="312.5" id="直线-3" stroke="#595959" stroke-width="4" stroke-linecap="square"></line>
        <path d="M951.853943,122.248674 C905.90749,122 888,157.104308 888,225.5 C888,293.895692 876,330 827,329.5" id="路径-7" stroke="#595959" stroke-width="4"></path>
        <line x1="1184.5" y1="138.5" x2="1185" y2="213" id="直线-4" stroke="#595959" stroke-width="4" stroke-linecap="round"></line>
        <line x1="1183" y1="238" x2="1183" y2="313" id="直线-4" stroke="#595959" stroke-width="4" stroke-linecap="round"></line>
        <g id="编组" transform="translate(1175.859945, 218.846021)" stroke-linecap="round" stroke-width="4">
            <line x1="0.143998959" y1="0.153940051" x2="15.9944383" y2="15.0000387" id="直线-5" stroke="#F5222D" stroke-linejoin="round" transform="translate(8.069219, 7.576989) rotate(1.123303) translate(-8.069219, -7.576989) "></line>
            <line x1="15.6964041" y1="0.153978714" x2="0.140054909" y2="15.1539787" id="直线-6" stroke="#FF4D4F" fill="#FF4D4F"></line>
        </g>
        <path d="M1200,329.505124 C1228.57377,329.505124 1231,309.76411 1231,278.251141 C1231,246.738173 1237.88075,226.75 1262,227" id="路径-8" stroke="#595959" stroke-width="4"></path>
        <path d="M1200,122.5 C1255.19558,122.5 1283.0582,138.5 1299.94503,174.86949 C1316.83187,211.23898 1328.41221,226.25 1374.3158,227.25" id="路径-9" stroke="#595959" stroke-width="4"></path>
        <line x1="1388.5" y1="242.5" x2="1388.5" y2="312.5" id="直线-7" stroke="#595959" stroke-width="4" stroke-linecap="square"></line>
        <text id="start-feature" font-family="HanziPenSC-W5, HanziPen SC" font-size="16" font-weight="bold" fill="#000000">
            <tspan x="222" y="400">start feature</tspan>
        </text>
        <text id="start-hotfix" font-family="HanziPenSC-W5, HanziPen SC" font-size="16" font-weight="bold" fill="#000000">
            <tspan x="457" y="192">start hotfix</tspan>
        </text>
        <text id="release-feature" font-family="HanziPenSC-W5, HanziPen SC" font-size="16" font-weight="bold" fill="#000000">
            <tspan x="760" y="399">release feature</tspan>
        </text>
        <text id="release-feature-but" font-family="HanziPenSC-W5, HanziPen SC" font-size="16" font-weight="bold" fill="#000000">
            <tspan x="1168" y="52">release feature</tspan>
            <tspan x="1168" y="74">but got a conflict</tspan>
            <tspan x="1168" y="96">with master</tspan>
        </text>
        <text id="create-a-new-branch" font-family="HanziPenSC-W5, HanziPen SC" font-size="16" font-weight="bold" fill="#000000">
            <tspan x="1168" y="363">create a new </tspan>
            <tspan x="1168" y="385">branch to </tspan>
            <tspan x="1168" y="407">resolve conflict</tspan>
        </text>
        <text id="feature-stage-develo" font-family="HanziPenSC-W5, HanziPen SC" font-size="16" font-weight="bold" fill="#000000">
            <tspan x="342" y="647">feature stage developing</tspan>
        </text>
        <text id="Hotfix" font-family="HanziPenSC-W5, HanziPen SC" font-size="24" font-weight="bold" fill="#000000">
            <tspan x="119" y="97">Hotfix</tspan>
        </text>
        <text id="Master" font-family="HanziPenSC-W5, HanziPen SC" font-size="24" font-weight="bold" fill="#000000">
            <tspan x="119" y="50">Master</tspan>
        </text>
        <text id="Feature" font-family="HanziPenSC-W5, HanziPen SC" font-size="24" font-weight="bold" fill="#000000">
            <tspan x="119" y="146">Feature</tspan>
        </text>
        <text id="Issue" font-family="HanziPenSC-W5, HanziPen SC" font-size="24" font-weight="bold" fill="#000000">
            <tspan x="267" y="50">Issue</tspan>
        </text>
        <text id="Conflict" font-family="HanziPenSC-W5, HanziPen SC" font-size="24" font-weight="bold" fill="#000000">
            <tspan x="267" y="97">Conflict</tspan>
        </text>
    </g>
</svg>